<?xml version="1.0" standalone="no"?><!DOCTYPE svg PUBLIC "-//W3C//DTD SVG 1.1//EN" "http://www.w3.org/Graphics/SVG/1.1/DTD/svg11.dtd"><svg t="1586841595122"  viewBox="0 0 1024 1024" version="1.1" xmlns="http://www.w3.org/2000/svg" p-id="2756" xmlns:xlink="http://www.w3.org/1999/xlink" width="128" height="128"><defs><style type="text/css"></style></defs><path d="M762.88 493.226667H530.773333V261.12h-37.546666v232.106667H261.12v37.546666h232.106667v232.106667h37.546666V530.773333h232.106667z" p-id="2757" fill="#cdcdcd"></path><path d="M802.133333 136.533333c47.786667 0 85.333333 37.546667 85.333334 85.333334v580.266666c0 47.786667-37.546667 85.333333-85.333334 85.333334H221.866667c-47.786667 0-85.333333-37.546667-85.333334-85.333334V221.866667c0-47.786667 37.546667-85.333333 85.333334-85.333334h580.266666m0-34.133333H221.866667c-66.56 0-119.466667 54.613333-119.466667 119.466667v580.266666c0 64.853333 52.906667 119.466667 119.466667 119.466667h580.266666c66.56 0 119.466667-54.613333 119.466667-119.466667V221.866667c0-64.853333-52.906667-119.466667-119.466667-119.466667z" p-id="2758" fill="#cdcdcd"></path></svg>