<?xml version="1.0" standalone="no"?><!DOCTYPE svg PUBLIC "-//W3C//DTD SVG 1.1//EN" "http://www.w3.org/Graphics/SVG/1.1/DTD/svg11.dtd"><svg t="1587864259280" class="icon" viewBox="0 0 1024 1024" version="1.1" xmlns="http://www.w3.org/2000/svg" p-id="31226" xmlns:xlink="http://www.w3.org/1999/xlink" width="128" height="128"><defs><style type="text/css"></style></defs><path d="M828.635857 13.835885H194.677768C95.00882 13.835885 13.257885 95.58682 13.257885 195.255768v633.958089c0 99.668948 81.750935 181.419883 181.419883 181.419883h633.958089c99.668948 0 181.419883-81.750935 181.419883-181.419883V195.255768c0-99.668948-81.750935-181.419883-181.419883-181.419883z m-1.842376 501.090242c0 23.192267-18.965639 42.157906-42.157906 42.157906H236.835673c-23.192267 0-42.157906-18.965639-42.157905-42.157906v-10.656883c0-23.192267 18.965639-42.157906 42.157905-42.157906H784.635575c23.192267 0 42.157906 18.965639 42.157906 42.157906v10.656883z" p-id="31227" fill="#bfcbd9"></path></svg>