<?xml version="1.0" standalone="no"?><!DOCTYPE svg PUBLIC "-//W3C//DTD SVG 1.1//EN" "http://www.w3.org/Graphics/SVG/1.1/DTD/svg11.dtd"><svg t="1586915773467"  viewBox="0 0 1024 1024" version="1.1" xmlns="http://www.w3.org/2000/svg" p-id="14080" xmlns:xlink="http://www.w3.org/1999/xlink" width="128" height="128"><defs><style type="text/css"></style></defs><path d="M441.960315 448.351473c-9.71343 0-17.89316 8.17973-17.89316 17.89316V655.912132c0 9.71343 8.17973 17.89316 17.89316 17.89316s17.89316-7.668497 17.893161-17.89316V466.244633c0-9.71343-8.17973-17.89316-17.893161-17.89316zM581.526965 448.351473c-9.71343 0-17.89316 8.17973-17.89316 17.89316V655.912132c0 9.71343 8.17973 17.89316 17.89316 17.89316s17.89316-7.668497 17.893161-17.89316V466.244633c0-9.71343-8.17973-17.89316-17.893161-17.89316zM567.212437 271.464803H455.76361c-18.404393 0-33.230155 14.825761-33.230154 32.718921v32.718922h177.909136v-32.718922c0-17.89316-14.825761-32.718922-33.230155-32.718921z" p-id="14081" ></path><path d="M831.519976 0c0 0.511233 0 0.511233 0 0l-639.041438 0.511233C86.653276 0 0.766107 85.375936 0.254874 191.201198v640.063904c0 105.825262 85.887169 191.201198 191.201198 191.201199h639.552671c105.825262 0 191.201198-85.887169 191.201198-191.201199v-639.041437C1022.721174 86.398402 936.834005 0.511233 831.519976 0zM761.992268 381.891163h-33.230155v336.902646c0 42.943585-34.763854 77.707439-78.218672 77.707439H371.921374c-42.943585 0-78.218672-34.763854-78.218672-77.707439V381.891163h-33.230155c-12.269596 0-22.494259-10.224663-22.494259-22.494258s9.71343-22.494259 22.494259-22.494259h117.072392v-32.718922c0-42.943585 34.763854-77.707439 78.218671-77.707438h111.448827c42.943585 0 78.218672 34.763854 78.218672 77.707438v32.718922H761.992268c12.780829 0 23.005492 10.224663 22.494258 22.494259 0 12.269596-9.71343 22.494259-22.494258 22.494258z" p-id="14082" ></path></svg>