<?xml version="1.0" standalone="no"?><!DOCTYPE svg PUBLIC "-//W3C//DTD SVG 1.1//EN" "http://www.w3.org/Graphics/SVG/1.1/DTD/svg11.dtd"><svg t="1588166372260"  viewBox="0 0 1024 1024" version="1.1" xmlns="http://www.w3.org/2000/svg" p-id="11110" xmlns:xlink="http://www.w3.org/1999/xlink" width="128" height="128"><defs><style type="text/css"></style></defs><path d="M774.144 544.142222H246.897778c-26.055111-0.398222-46.990222-20.195556-46.990222-44.544V498.915556c0-24.803556 21.048889-45.283556 46.990222-45.283556h527.189333a46.08 46.08 0 0 1 46.819556 45.340444v0.568889c0 24.405333-20.821333 44.088889-46.819556 44.714667v-0.113778h0.056889z m0 222.151111H246.897778c-26.055111-0.568889-46.990222-20.309333-46.990222-44.600889v-0.739555c0-24.917333 21.048889-45.226667 46.990222-45.226667h527.189333a46.08 46.08 0 0 1 46.819556 45.340445v0.568889c0 24.348444-20.821333 44.088889-46.819556 44.600888h0.056889zM199.964444 276.764444c0-24.803556 21.048889-45.283556 46.933334-45.283555h332.401778a46.307556 46.307556 0 0 1 47.047111 46.08c0 24.348444-21.048889 44.032-47.047111 44.544H246.897778c-25.998222-0.512-46.933333-20.195556-46.933334-44.544v-0.796445zM930.531556 0H93.468444C42.097778 0 0 40.675556 0 90.282667V933.546667C0 983.267556 41.984 1024 93.468444 1024h837.063112C981.902222 1024 1024 983.324444 1024 933.603556V90.282667C1024 40.675556 982.016 0 930.531556 0z" p-id="11111" ></path></svg>