<?xml version="1.0" standalone="no"?><!DOCTYPE svg PUBLIC "-//W3C//DTD SVG 1.1//EN" "http://www.w3.org/Graphics/SVG/1.1/DTD/svg11.dtd"><svg t="1586916219388"  viewBox="0 0 1024 1024" version="1.1" xmlns="http://www.w3.org/2000/svg" p-id="42098" xmlns:xlink="http://www.w3.org/1999/xlink" width="128" height="128"><defs><style type="text/css"></style></defs><path d="M204.8 0h614.4a204.8 204.8 0 0 1 204.8 204.8v614.4a204.8 204.8 0 0 1-204.8 204.8H204.8a204.8 204.8 0 0 1-204.8-204.8V204.8a204.8 204.8 0 0 1 204.8-204.8z m221.2864 756.6336l357.1712-355.8912-162.9184-161.3824L263.168 595.456l162.9184 161.28zM175.5648 843.776l227.4816-64.6144-162.304-161.3312-65.1776 225.9456zM858.7264 265.216l-101.888-100.7104c-16.2304-16.3328-44.8-15.7184-63.1296 2.048l-48.896 48.2816 162.9184 161.3824 48.9472-48.3328c17.5616-17.7152 18.2784-46.2336 2.048-62.6688z" p-id="42099" data-spm-anchor-id="a313x.7781069.0.i12" class="selected" ></path></svg>