<?xml version="1.0" standalone="no"?><!DOCTYPE svg PUBLIC "-//W3C//DTD SVG 1.1//EN" "http://www.w3.org/Graphics/SVG/1.1/DTD/svg11.dtd"><svg t="1588150177710"  viewBox="0 0 1024 1024" version="1.1" xmlns="http://www.w3.org/2000/svg" p-id="3190" xmlns:xlink="http://www.w3.org/1999/xlink" width="128" height="128"><defs><style type="text/css"></style></defs><path d="M635.805 599.07c22.638-0.222 40.975-18.658 40.975-41.33 0-22.82-18.54-41.378-41.36-41.378-22.822 0-41.36 18.572-41.36 41.379 0 22.686 18.353 41.107 40.972 41.328h0.773zM638.963 637.862l-7.405 0.466-50.044 69.995h107.808z" p-id="3191" ></path><path d="M512 0C229.24 0 0.023 229.229 0.023 512.004 0.024 794.771 229.24 1024 511.999 1024c282.758 0 511.977-229.229 511.977-511.996C1023.976 229.23 794.757 0 512 0z m-48.267 737.71v23.913H271.49c-16.204 0-29.387-13.183-29.387-29.387V238.95c0-16.202 13.183-29.387 29.387-29.387h400.926c16.203 0 29.387 13.184 29.387 29.387v255.653a91.948 91.948 0 0 0-25.187-18.724V238.95c0-2.283-1.915-4.198-4.2-4.198H271.49c-2.284 0-4.199 1.916-4.199 4.198v493.286c0 2.284 1.932 4.195 4.2 4.195h192.373c-0.014 0.44-0.13 0.844-0.13 1.279z m-137.13-313.283c-6.953 0-12.595-5.644-12.595-12.598 0-6.95 5.644-12.594 12.595-12.594H613.64c6.951 0 12.594 5.644 12.594 12.594 0 6.954-5.644 12.598-12.58 12.598H326.604z m196.79 77.664c0 6.953-5.64 12.593-12.594 12.593H326.585c-6.953 0-12.593-5.64-12.593-12.593 0-6.954 5.64-12.594 12.593-12.594H510.8c6.955 0.001 12.594 5.641 12.594 12.594z m90.263-167.927H326.603c-6.953 0-12.595-5.64-12.595-12.594s5.644-12.593 12.595-12.593H613.64c6.951 0 12.611 5.64 12.611 12.593s-5.642 12.594-12.596 12.594zM470.9 604.948H326.585c-6.953 0-12.593-5.644-12.593-12.597 0-6.95 5.64-12.594 12.593-12.594h144.316c6.953 0 12.593 5.645 12.593 12.594 0 6.953-5.638 12.597-12.593 12.597z m311 180.098c0 16.207-13.18 29.391-29.388 29.391H518.308c-16.204 0-29.387-13.184-29.387-29.391V737.71c0-16.207 13.183-29.387 29.387-29.387h32.225l62.938-88.047c-25.877-9.119-44.602-33.568-44.602-62.534 0-36.709 29.843-66.566 66.552-66.566 36.707 0 66.546 29.857 66.546 66.566 0 28.967-18.705 53.415-44.601 62.534l62.922 88.047h32.244c16.204 0 29.388 13.18 29.368 29.387v47.336z" p-id="3192" ></path><path d="M752.55 733.527H518.323c-2.284 0-4.199 1.915-4.199 4.199v47.339c0 2.283 1.915 4.195 4.2 4.195h234.208c2.284 0 4.195-1.912 4.195-4.195h0.02v-47.34c0.001-2.283-1.914-4.198-4.197-4.198z" p-id="3193"></path></svg>