<?xml version="1.0" standalone="no"?><!DOCTYPE svg PUBLIC "-//W3C//DTD SVG 1.1//EN" "http://www.w3.org/Graphics/SVG/1.1/DTD/svg11.dtd"><svg t="1588150656361"  viewBox="0 0 1024 1024" version="1.1" xmlns="http://www.w3.org/2000/svg" p-id="3740" xmlns:xlink="http://www.w3.org/1999/xlink" width="128" height="128"><defs><style type="text/css"></style></defs><path d="M179.2 563.2h665.6a102.4 102.4 0 0 0 102.4-102.4V102.4a102.4 102.4 0 0 0-102.4-102.4H179.2a102.4 102.4 0 0 0-102.4 102.4v358.4a102.4 102.4 0 0 0 102.4 102.4z m204.8-311.7568a20.992 20.992 0 0 1 21.0432-20.9152h65.792l-78.848-62.1056a20.8896 20.8896 0 0 1-3.456-29.3888 21.12 21.12 0 0 1 29.568-3.4304l86.9888 68.48 92.2112-68.8128a21.12 21.12 0 0 1 29.44 4.1984 20.8896 20.8896 0 0 1-4.224 29.2864l-82.7392 61.7728h70.144c11.5968 0 21.0176 9.344 21.0176 20.9152a20.992 20.992 0 0 1-21.0432 20.9408h-81.408v57.5744h81.408a20.992 20.992 0 0 1 21.0432 20.9408 20.9664 20.9664 0 0 1-21.0432 20.9152h-81.408v68.0448a20.992 20.992 0 0 1-21.0432 20.9408 20.992 20.992 0 0 1-21.0176-20.9408v-68.0448h-81.408a20.9664 20.9664 0 0 1-21.0176-20.9152 20.992 20.992 0 0 1 21.0432-20.9408H486.4V272.384h-81.408A20.992 20.992 0 0 1 384 251.4432z m606.2336 424.7808c-18.5088-44.1088-74.5728-43.776-105.7792-36.4032l-93.6192 26.1888a126.6432 126.6432 0 0 1-39.5008 81.28c-61.5424 58.4192-181.12 70.1952-267.5456 70.1952-50.176 0-89.216-3.968-99.2256-5.12a30.5152 30.5152 0 1 1 6.8352-60.5952c66.4832 7.424 252.7744 13.056 317.6704-48.64 12.4928-11.8784 19.2512-25.344 21.0432-41.4976-18.5344-25.0368-49.5616-35.584-73.3696-35.84H50.7648C36.864 625.7664 25.6 637.44 25.6 651.8528v110.5152c0 11.3408 11.2896 55.6544 17.5104 60.544C223.6928 964.5824 407.552 1024 531.2 1024c14.336 0 27.6992-0.8192 39.8336-2.5344 78.848-13.1328 337.3568-179.7632 387.6608-222.464 37.1712-31.6416 49.5616-79.8464 31.5392-122.7776z" p-id="3741" ></path></svg>