<?xml version="1.0" standalone="no"?><!DOCTYPE svg PUBLIC "-//W3C//DTD SVG 1.1//EN" "http://www.w3.org/Graphics/SVG/1.1/DTD/svg11.dtd"><svg t="1586931543529"  viewBox="0 0 1024 1024" version="1.1" xmlns="http://www.w3.org/2000/svg" p-id="4419" xmlns:xlink="http://www.w3.org/1999/xlink" width="128" height="128"><defs><style type="text/css"></style></defs><path d="M936.448 665.6h-46.592V467.456c0-7.68-6.144-14.336-14.336-14.336h-329.216V308.736H645.12c21.504 0 38.912-17.408 38.912-38.912V123.392c0-21.504-17.408-38.912-38.912-38.912H374.272c-21.504 0-38.912 17.408-38.912 38.912v146.944c0 21.504 17.408 38.912 38.912 38.912h98.816v144.384H152.576c-7.68 0-14.336 6.144-14.336 14.336V665.6H87.04c-22.528 0-40.448 18.432-40.448 40.448v169.984c0 22.528 18.432 40.448 40.448 40.448h169.984c22.528 0 40.448-18.432 40.448-40.448v-169.984c0-22.528-18.432-40.448-40.448-40.448h-49.664v-128c0-7.68 6.144-14.336 14.336-14.336h583.168c7.68 0 14.336 6.144 14.336 14.336v128h-53.248c-22.528 0-40.448 18.432-40.448 40.448v169.984c0 22.528 18.432 40.448 40.448 40.448h169.984c22.528 0 40.448-18.432 40.448-40.448v-169.984c0.512-22.016-17.408-40.448-39.936-40.448z" p-id="4420"></path></svg>