<?xml version="1.0" standalone="no"?><!DOCTYPE svg PUBLIC "-//W3C//DTD SVG 1.1//EN" "http://www.w3.org/Graphics/SVG/1.1/DTD/svg11.dtd"><svg t="1586931772460"  viewBox="0 0 1024 1024" version="1.1" xmlns="http://www.w3.org/2000/svg" p-id="9038" xmlns:xlink="http://www.w3.org/1999/xlink" width="128" height="128"><defs><style type="text/css"></style></defs><path d="M708.754286 540.086857c170.934857 12.434286 306.761143 146.651429 314.88 313.051429l0.365714 15.725714a27.136 27.136 0 0 1-27.136 27.136h-93.769143A494.299429 494.299429 0 0 0 708.754286 540.16z m-26.112-373.686857a171.373714 171.373714 0 0 1 170.715428 172.032 171.373714 171.373714 0 0 1-190.317714 170.934857 484.937143 484.937143 0 0 0-91.209143-42.715428A254.902857 254.902857 0 0 0 665.6 268.8a255.268571 255.268571 0 0 0-19.602286-98.377143c11.702857-2.633143 24.064-4.022857 36.644572-4.022857z"  p-id="9039"></path><path d="M416.036571 507.757714c229.668571 0 415.963429 175.689143 415.963429 392.484572l-0.073143-4.242286h0.073143v27.428571a36.571429 36.571429 0 0 1-36.571429 36.571429H36.571429a36.571429 36.571429 0 0 1-36.571429-36.571429v-27.428571c2.413714-214.820571 187.757714-388.242286 416.036571-388.242286zM409.6 64a204.8 204.8 0 1 1 0 409.6 204.8 204.8 0 0 1 0-409.6z" p-id="9040"></path></svg>