<?xml version="1.0" standalone="no"?><!DOCTYPE svg PUBLIC "-//W3C//DTD SVG 1.1//EN" "http://www.w3.org/Graphics/SVG/1.1/DTD/svg11.dtd"><svg t="1586932234973"  viewBox="0 0 1024 1024" version="1.1" xmlns="http://www.w3.org/2000/svg" p-id="21292" xmlns:xlink="http://www.w3.org/1999/xlink" width="128" height="128"><defs><style type="text/css"></style></defs><path d="M803.603 269.403c0-22.742 18.637-41.176 41.575-41.176 22.937 0 41.574 18.434 41.574 41.176-0.09 22.698-18.547 41.177-41.574 41.177-22.938 0-41.575-18.479-41.575-41.177z m16.621 488.303c0 18.611-15.277 33.803-34.048 33.803H704.55c0 0.044-0.09 0.133-0.09 0.266h-84.268c3.136-11.682 10.394-39.932 10.26-51.837 0.134-2.842 0.358-5.774 0.358-8.572 0-64.94-53.357-117.843-118.81-117.843-12.365 0-24.237 1.91-35.526 5.374-45.652 16.48-78.356 59.832-78.356 110.87 0 7.462 0.717 14.88 2.061 21.987h-0.045s4.032 20.743 11.648 40.021H319.27c0-0.089-0.09-0.133-0.09-0.266h-71.59c-18.77 0-34.092-15.192-34.092-33.803v-49.483c0-18.611 15.321-33.802 34.092-33.802h70.56c4.032-13.326 9.453-26.34 16.218-38.6l-50.624-50.238c-12.365-12.26-12.365-32.203 0-44.507l38.528-38.2c12.365-12.216 32.48-12.216 44.845 0l51.43 50.948c10.887-5.552 22.4-10.305 34.362-13.992v-77.91c0-17.324 14.157-31.36 31.629-31.36h54.61c17.473 0 31.63 14.036 31.63 31.36v77.821a206.42 206.42 0 0 1 37.542 15.68l56.896-56.456c11.872-11.771 31.091-11.771 43.053 0l40.544 40.11c11.827 11.77 11.827 30.827 0 42.686l-57.747 57.256c5.868 11.238 10.796 23.187 14.515 35.49h80.595c18.771 0 34.048 15.192 34.048 33.803v49.394z m-641.58-527.924h348.991c22.087 0 39.917 17.678 39.917 39.533 0 21.898-17.83 39.621-39.917 39.621H178.554c-21.908 0-39.828-17.812-39.828-39.621 0-21.855 17.83-39.533 39.917-39.533z m591.673 39.533c0 22.742-18.592 41.22-41.53 41.22-22.893 0-41.53-18.434-41.53-41.22 0-22.787 18.637-41.177 41.53-41.177 22.938 0 41.53 18.434 41.53 41.177zM130.483 160C93.747 160 64 189.583 64 225.917v572.166C64 834.462 93.747 864 130.483 864h762.989C930.208 864 960 834.462 960 798.083V225.917C959.866 189.583 930.074 160 893.338 160H130.483z" p-id="21293"></path></svg>