<?xml version="1.0" standalone="no"?><!DOCTYPE svg PUBLIC "-//W3C//DTD SVG 1.1//EN" "http://www.w3.org/Graphics/SVG/1.1/DTD/svg11.dtd"><svg t="1586931903733"  viewBox="0 0 1103 1024" version="1.1" xmlns="http://www.w3.org/2000/svg" p-id="11730" xmlns:xlink="http://www.w3.org/1999/xlink" width="137.875" height="128"><defs><style type="text/css"></style></defs><path d="M991.979262 0.000327h-882.194996A111.417961 111.417961 0 0 0 0 111.091548v801.81723a111.417961 111.417961 0 0 0 110.764483 111.091222h882.194996a111.417961 111.417961 0 0 0 110.764483-111.091222V111.091548A111.417961 111.417961 0 0 0 991.979262 0.000327zM139.844244 268.906431h205.845499v73.51625h-205.845499z m0 274.787404h205.845499v73.842989h-205.845499z m795.282452 282.955877H294.064999a299.61956 299.61956 0 0 1 8.495211-72.536033 297.005649 297.005649 0 0 1 19.604333-56.525828 330.659754 330.659754 0 0 1 77.110377-105.863399 363.006904 363.006904 0 0 1 160.755533-85.932327 172.518133 172.518133 0 1 1 181.666822 0 359.412776 359.412776 0 0 1 160.755532 85.932327A330.659754 330.659754 0 0 1 980.216662 695.954157a311.708899 311.708899 0 0 1 28.426284 130.695555z" p-id="11731" ></path></svg>