<?xml version="1.0" standalone="no"?><!DOCTYPE svg PUBLIC "-//W3C//DTD SVG 1.1//EN" "http://www.w3.org/Graphics/SVG/1.1/DTD/svg11.dtd"><svg t="1589173455267" class="icon" viewBox="0 0 1024 1024" version="1.1" xmlns="http://www.w3.org/2000/svg" p-id="126711" xmlns:xlink="http://www.w3.org/1999/xlink" width="128" height="128"><defs><style type="text/css"></style></defs><path d="M0 0m204.8 0l614.4 0q204.8 0 204.8 204.8l0 614.4q0 204.8-204.8 204.8l-614.4 0q-204.8 0-204.8-204.8l0-614.4q0-204.8 204.8-204.8Z" p-id="126712" data-spm-anchor-id="a313x.7781069.0.i41" class="selected"></path><path d="M518.7328 425.0112a76.6464 76.6464 0 0 1 76.544-76.544 76.6464 76.6464 0 0 1 76.544 76.544 76.6464 76.6464 0 0 1-76.544 76.544 76.6464 76.6464 0 0 1-76.544-76.544m247.2192-112.3328c0-24.064-19.5584-43.648-42.8032-43.648h-0.0512c-0.7424 0-76.3136-2.7904-133.3504-2.7904-65.7152 0-71.6288 3.1744-78.7456 10.2912l-101.632 101.632-130.3552 130.3552a43.8528 43.8528 0 0 0 0.1024 61.952l185.3952 185.4208c8.32 8.2944 19.3024 12.8256 31.0528 12.8256 11.7248 0 22.6816-4.5312 30.8992-12.7232l145.0496-145.0496 86.9376-86.9632c7.68-7.6544 14.8736-14.848 7.5008-211.3024" fill="#FFFFFF" p-id="126713"></path></svg>