<?xml version="1.0" standalone="no"?><!DOCTYPE svg PUBLIC "-//W3C//DTD SVG 1.1//EN" "http://www.w3.org/Graphics/SVG/1.1/DTD/svg11.dtd"><svg t="1587022558463"  viewBox="0 0 1024 1024" version="1.1" xmlns="http://www.w3.org/2000/svg" p-id="2145" xmlns:xlink="http://www.w3.org/1999/xlink" width="128" height="128"><defs><style type="text/css"></style></defs><path d="M447.339543 859.784646c-231.533298 0-420.063923-188.444267-420.152713-420.090681 0.088791-231.746152 188.619416-420.322997 420.240288-420.366784 231.703581 0 420.242721 188.531841 420.324213 420.285291 0 231.678039-188.531841 420.172175-420.411788 420.172174m0.087575-796.079145C240.243148 63.749288 71.652724 232.400527 71.563934 439.693965c0.090007 207.168157 168.677998 375.686819 375.775609 375.686819 207.337225 0 376.033468-168.563665 376.033468-375.768312-0.081493-207.24965-168.695027-375.906971-375.945893-375.906971m0 0z" p-id="2146" fill="#dbdbdb"></path><path d="M198.653829 439.479894H154.249966c0-161.669615 131.597544-293.197829 293.177152-293.197829v44.378321C310.283196 190.654304 198.653829 302.289753 198.653829 439.479894m0 0zM974.631004 1006.038737a22.163618 22.163618 0 0 1-15.686762-6.484154L711.808108 752.443991c-8.678378-8.652836-8.678378-22.702443 0-31.380821 8.678378-8.658917 22.708525-8.658917 31.385687 0l247.131269 247.111808c8.652836 8.672297 8.652836 22.701227 0 31.380821-4.341014 4.338581-9.970101 6.482937-15.69406 6.482938m0 0z" p-id="2147" fill="#dbdbdb"></path></svg>