<?xml version="1.0" standalone="no"?><!DOCTYPE svg PUBLIC "-//W3C//DTD SVG 1.1//EN" "http://www.w3.org/Graphics/SVG/1.1/DTD/svg11.dtd"><svg t="1586918618049"  viewBox="0 0 1024 1024" version="1.1" xmlns="http://www.w3.org/2000/svg" p-id="63377" xmlns:xlink="http://www.w3.org/1999/xlink" width="128" height="128"><defs><style type="text/css"></style></defs><path d="M959.2832 451.85024c-3.50208-19.74272-22.31808-39.61856-41.78432-44.09856l-14.4384-3.3536c-34.23232-10.3936-64.64-33.408-83.94752-67.00544-19.46624-33.8432-23.89504-72.27904-15.47264-107.4688l4.26496-13.7728c5.85216-19.16416-1.75104-45.55776-16.896-58.53696 0 0-13.72672-11.65824-52.39296-34.1504-38.66624-22.45632-55.4496-28.59008-55.4496-28.59008-18.75968-6.81984-45.23008-0.32768-58.79296 14.40768l-10.17344 10.99264c-26.03008 24.74496-61.11232 39.89504-99.66592 39.89504-38.74304 0-73.9328-15.2576-99.9936-40.1664l-9.82016-10.67008c-13.50656-14.70976-40.00256-21.22752-58.76224-14.40256 0 0-16.78848 6.09792-55.53664 28.59008-38.6048 22.49216-52.2496 34.08896-52.2496 34.08896-15.2064 12.9792-22.8352 39.26528-16.92672 58.51136l4.23424 13.91104a147.52768 147.52768 0 0 1-15.47264 107.33568c-19.35872 33.7408-50.06336 56.80128-84.43904 67.08224l-14.11072 3.24608c-19.38432 4.4544-38.22592 24.36096-41.728 44.07296 0 0-3.16928 17.73056-3.16928 62.74048 0 45.0048 3.1744 62.65856 3.1744 62.65856 3.52256 19.79392 22.33856 39.64416 41.728 44.20608l13.77792 3.08224c34.5088 10.33728 65.29536 33.4848 84.76672 67.35872 19.38432 33.8176 23.81824 72.25344 15.42144 107.44832l-4.18304 13.7472c-5.90848 19.13344 1.72032 45.52704 16.97792 58.50112 0 0 13.6448 11.65824 52.33664 34.1504 38.69184 22.54336 55.42912 28.5952 55.42912 28.5952 18.78528 6.81472 45.19936 0.27136 58.76224-14.35648l9.70752-10.496a143.88736 143.88736 0 0 1 100.07552-40.25344c38.77376 0 74.04544 15.33952 100.21888 40.24832h0.02048l9.6 10.50112c13.56288 14.62784 39.92064 21.1712 58.73152 14.35648 0 0 16.73728-6.15936 55.56224-28.5952 38.61504-22.49216 52.28032-34.1504 52.28032-34.1504 15.2064-12.97408 22.75328-39.26016 16.95744-58.50112l-4.26496-14.19264c-8.20224-35.07712-3.72224-73.35424 15.47264-107.00288 19.52768-33.92512 50.26304-56.97024 84.7104-67.35872v-0.05632l13.78304-3.18976c19.47136-4.4544 38.28224-24.29952 41.7792-44.09856 0 0 3.1744-17.70496 3.1744-62.74048-0.10752-44.81536-3.2768-62.52032-3.2768-62.52032z m-444.7744 207.85152c-79.49312 0-143.96928-64.99328-143.96928-145.16736 0-80.06144 64.47616-144.9984 143.96928-144.9984 79.48288 0 143.88224 64.96768 143.88224 145.11104 0 80.16896-64.39936 145.05472-143.88224 145.05472z" p-id="63378"></path></svg>